<mxfile host="app.diagrams.net" agent="Mozilla/5.0 (Windows NT 10.0; Win64; x64) AppleWebKit/537.36 (KHTML, like Gecko) Chrome/135.0.0.0 Safari/537.36" version="26.2.14">
  <diagram name="Page-1" id="w19W2elUKWIPrPfcGqXV">
    <mxGraphModel dx="1025" dy="451" grid="1" gridSize="10" guides="1" tooltips="1" connect="1" arrows="1" fold="1" page="1" pageScale="1" pageWidth="827" pageHeight="1169" math="0" shadow="0">
      <root>
        <mxCell id="0" />
        <mxCell id="1" parent="0" />
        <mxCell id="wLg-W0uU6MoSDw0pWi6D-14" style="edgeStyle=orthogonalEdgeStyle;rounded=0;orthogonalLoop=1;jettySize=auto;html=1;exitX=-0.006;exitY=0.592;exitDx=0;exitDy=0;entryX=0.844;entryY=0.008;entryDx=0;entryDy=0;curved=1;exitPerimeter=0;entryPerimeter=0;" parent="1" source="wLg-W0uU6MoSDw0pWi6D-4" target="wLg-W0uU6MoSDw0pWi6D-1" edge="1">
          <mxGeometry relative="1" as="geometry" />
        </mxCell>
        <mxCell id="wLg-W0uU6MoSDw0pWi6D-20" value="User Input" style="edgeLabel;html=1;align=center;verticalAlign=middle;resizable=0;points=[];" parent="wLg-W0uU6MoSDw0pWi6D-14" vertex="1" connectable="0">
          <mxGeometry x="0.1284" y="-17" relative="1" as="geometry">
            <mxPoint x="27" y="33" as="offset" />
          </mxGeometry>
        </mxCell>
        <mxCell id="wLg-W0uU6MoSDw0pWi6D-15" style="edgeStyle=orthogonalEdgeStyle;rounded=0;orthogonalLoop=1;jettySize=auto;html=1;exitX=0.983;exitY=0.417;exitDx=0;exitDy=0;entryX=0.25;entryY=1;entryDx=0;entryDy=0;curved=1;exitPerimeter=0;" parent="1" source="wLg-W0uU6MoSDw0pWi6D-1" target="wLg-W0uU6MoSDw0pWi6D-4" edge="1">
          <mxGeometry relative="1" as="geometry" />
        </mxCell>
        <mxCell id="wLg-W0uU6MoSDw0pWi6D-21" value="Sensor Data" style="edgeLabel;html=1;align=center;verticalAlign=middle;resizable=0;points=[];" parent="wLg-W0uU6MoSDw0pWi6D-15" vertex="1" connectable="0">
          <mxGeometry x="-0.1296" y="20" relative="1" as="geometry">
            <mxPoint as="offset" />
          </mxGeometry>
        </mxCell>
        <mxCell id="wLg-W0uU6MoSDw0pWi6D-1" value="SYSTEM" style="rounded=0;whiteSpace=wrap;html=1;" parent="1" vertex="1">
          <mxGeometry x="320" y="235" width="120" height="80" as="geometry" />
        </mxCell>
        <mxCell id="wLg-W0uU6MoSDw0pWi6D-5" style="edgeStyle=orthogonalEdgeStyle;rounded=0;orthogonalLoop=1;jettySize=auto;html=1;exitX=0.25;exitY=0;exitDx=0;exitDy=0;entryX=-0.006;entryY=0.133;entryDx=0;entryDy=0;curved=1;entryPerimeter=0;" parent="1" source="wLg-W0uU6MoSDw0pWi6D-3" target="wLg-W0uU6MoSDw0pWi6D-1" edge="1">
          <mxGeometry relative="1" as="geometry" />
        </mxCell>
        <mxCell id="wLg-W0uU6MoSDw0pWi6D-16" value="Temperature" style="edgeLabel;html=1;align=center;verticalAlign=middle;resizable=0;points=[];" parent="wLg-W0uU6MoSDw0pWi6D-5" vertex="1" connectable="0">
          <mxGeometry x="0.0124" y="-29" relative="1" as="geometry">
            <mxPoint as="offset" />
          </mxGeometry>
        </mxCell>
        <mxCell id="wLg-W0uU6MoSDw0pWi6D-6" style="edgeStyle=orthogonalEdgeStyle;rounded=0;orthogonalLoop=1;jettySize=auto;html=1;exitX=0.5;exitY=0;exitDx=0;exitDy=0;entryX=0;entryY=0.342;entryDx=0;entryDy=0;curved=1;entryPerimeter=0;" parent="1" source="wLg-W0uU6MoSDw0pWi6D-3" target="wLg-W0uU6MoSDw0pWi6D-1" edge="1">
          <mxGeometry relative="1" as="geometry" />
        </mxCell>
        <mxCell id="wLg-W0uU6MoSDw0pWi6D-17" value="Pressure" style="edgeLabel;html=1;align=center;verticalAlign=middle;resizable=0;points=[];" parent="wLg-W0uU6MoSDw0pWi6D-6" vertex="1" connectable="0">
          <mxGeometry x="0.1114" y="-22" relative="1" as="geometry">
            <mxPoint x="-6" y="4" as="offset" />
          </mxGeometry>
        </mxCell>
        <mxCell id="wLg-W0uU6MoSDw0pWi6D-7" style="edgeStyle=orthogonalEdgeStyle;rounded=0;orthogonalLoop=1;jettySize=auto;html=1;exitX=0.75;exitY=0;exitDx=0;exitDy=0;entryX=0;entryY=0.633;entryDx=0;entryDy=0;curved=1;entryPerimeter=0;" parent="1" source="wLg-W0uU6MoSDw0pWi6D-3" target="wLg-W0uU6MoSDw0pWi6D-1" edge="1">
          <mxGeometry relative="1" as="geometry" />
        </mxCell>
        <mxCell id="wLg-W0uU6MoSDw0pWi6D-18" value="Power" style="edgeLabel;html=1;align=center;verticalAlign=middle;resizable=0;points=[];" parent="wLg-W0uU6MoSDw0pWi6D-7" vertex="1" connectable="0">
          <mxGeometry x="0.0042" y="-18" relative="1" as="geometry">
            <mxPoint x="4" as="offset" />
          </mxGeometry>
        </mxCell>
        <mxCell id="wLg-W0uU6MoSDw0pWi6D-3" value="ESPRESSO MACHINE" style="rounded=0;whiteSpace=wrap;html=1;" parent="1" vertex="1">
          <mxGeometry x="120" y="355" width="120" height="80" as="geometry" />
        </mxCell>
        <mxCell id="wLg-W0uU6MoSDw0pWi6D-4" value="USER" style="rounded=0;whiteSpace=wrap;html=1;" parent="1" vertex="1">
          <mxGeometry x="520" y="115" width="120" height="80" as="geometry" />
        </mxCell>
        <mxCell id="RnZcuvhByZRlKtQZMTfZ-1" value="&lt;font style=&quot;font-size: 36px;&quot;&gt;Context Diagram&lt;/font&gt;" style="text;html=1;align=center;verticalAlign=middle;resizable=0;points=[];autosize=1;strokeColor=none;fillColor=none;" vertex="1" parent="1">
          <mxGeometry x="244" y="16" width="290" height="60" as="geometry" />
        </mxCell>
      </root>
    </mxGraphModel>
  </diagram>
</mxfile>
